# Blender 4.5.0
# www.blender.org
mtllib Untitled.mtl
o Cube
v -0.600000 -0.600000 1.000000
v -0.600000 0.600000 1.000000
v -1.000000 -1.000000 -1.000000
v -1.000000 1.000000 -1.000000
v 1.000000 -1.000000 1.000000
v 1.000000 1.000000 1.000000
v 1.000000 -1.000000 -1.000000
v 1.000000 1.000000 -1.000000
v -1.000000 1.500000 1.000000
v -1.000000 1.500000 -1.000000
v 1.000000 1.500000 -1.000000
v 1.000000 1.500000 1.000000
v -1.000000 1.000000 -3.434553
v 2.721489 1.000000 -2.721489
v 3.434553 1.000000 1.000000
v -1.000000 1.500000 -3.434553
v 2.721489 1.500000 -2.721489
v 3.434553 1.500000 1.000000
v 1.000000 1.000000 -1.000000
v 1.000000 -1.000000 -1.000000
v 0.600000 -0.600000 1.000000
v 0.600000 0.600000 1.000000
v 1.000000 1.000000 -1.000000
v 1.000000 -1.000000 -1.000000
v 1.000000 -1.000000 1.000000
v 1.000000 1.000000 1.000000
v 1.000000 1.000000 -1.000000
v 1.000000 -1.000000 -1.000000
v 1.000000 -1.000000 1.000000
v 1.000000 1.000000 1.000000
v 1.000000 1.000000 -1.000000
v 1.000000 -1.000000 -1.000000
v 1.000000 -1.000000 1.000000
v 1.000000 1.000000 1.000000
v -1.000000 -1.000000 1.000000
v -1.000000 1.000000 1.000000
v 1.000000 1.000000 1.000000
v 1.000000 -1.000000 1.000000
v -0.600000 -0.600000 -0.446850
v -0.600000 0.600000 -0.446850
v 0.600000 0.600000 -0.446850
v 0.600000 -0.600000 -0.446850
v 1.000000 3.500000 1.000000
v -1.000000 3.500000 -0.500741
v -1.000000 3.000741 -1.000000
v -1.000000 3.433112 -0.750370
v -1.000000 3.250370 -0.933112
v 1.000000 3.000741 -1.000000
v 1.000000 3.500000 -0.500741
v 1.000000 3.250370 -0.933112
v 1.000000 3.433112 -0.750370
v -1.000000 3.500000 0.500000
v -1.000000 3.000000 1.000000
v -0.500000 3.500000 1.000000
v -1.000000 3.425811 0.745412
v -0.925811 3.500000 0.745412
v -0.941356 3.441355 0.858646
v -0.925811 3.245412 1.000000
v -1.000000 3.245412 0.925811
v -0.941356 3.358646 0.941356
v -0.745412 3.500000 0.925811
v -0.745412 3.425811 1.000000
v -0.858646 3.441355 0.941356
v -1.000000 -0.333333 1.000000
v -1.000000 0.333333 1.000000
v -1.000000 0.333333 -1.000000
v -1.000000 -0.333333 -1.000000
v 1.000000 0.333333 -1.000000
v 1.000000 -0.333333 -1.000000
v 1.000000 0.333333 1.000000
v 1.000000 -0.333333 1.000000
v 1.000000 0.333333 -1.000000
v 1.000000 -0.333333 -1.000000
v 1.000000 0.333333 1.000000
v 1.000000 -0.333333 1.000000
v 1.000000 0.333333 -1.000000
v 1.000000 -0.333333 -1.000000
v 1.000000 0.333333 1.000000
v 1.000000 -0.333333 1.000000
v 1.000000 0.333333 -1.000000
v 1.000000 -0.333333 -1.000000
v 1.000000 0.333333 1.000000
v 1.000000 -0.333333 1.000000
v 1.000000 0.333333 -1.000000
v 1.000000 -0.333333 -1.000000
v 1.000000 0.333333 1.000000
v 1.000000 -0.333333 1.000000
v -0.600000 -0.200000 1.000000
v -0.600000 0.200000 1.000000
v 0.600000 0.200000 1.000000
v 0.600000 -0.200000 1.000000
v -0.600000 -0.200000 -0.446850
v -0.600000 0.200000 -0.446850
v 0.600000 0.200000 -0.446850
v 0.600000 -0.200000 -0.446850
v -1.000000 -0.333333 0.631851
v -1.000000 0.333333 0.631851
v 1.000000 0.333333 0.631851
v 1.000000 -0.333333 0.631851
v -0.600000 -0.200000 0.631851
v -0.600000 0.200000 0.631851
v 0.600000 0.200000 0.631851
v 0.600000 -0.200000 0.631851
v -0.502711 3.197204 1.000000
v -0.412318 2.114106 1.000000
v -0.075041 2.734031 1.000000
v 0.270610 2.184858 1.000000
v 0.599688 3.223730 1.000000
v 0.367641 3.275130 1.000000
v 0.215586 2.715970 1.000000
v -0.038852 2.975353 1.000000
v -0.266378 2.651653 1.000000
v -0.328858 3.248652 1.000000
v -0.502711 3.197203 2.317591
v -0.412318 2.114105 2.317591
v -0.075041 2.734031 2.317591
v 0.270610 2.184858 2.317591
v 0.599688 3.223730 2.317591
v 0.367641 3.275130 2.317591
v 0.215586 2.715969 2.317591
v -0.038852 2.975353 2.317591
v -0.266378 2.651653 2.317591
v -0.328858 3.248651 2.317591
vn -1.0000 -0.0000 -0.0000
vn -0.0000 -0.0000 -1.0000
vn 1.0000 -0.0000 -0.0000
vn -0.0000 1.0000 -0.0000
vn -0.0000 -1.0000 -0.0000
vn -0.0000 -0.0000 1.0000
vn 0.1882 -0.0000 -0.9821
vn 0.9821 -0.0000 -0.1882
vn -0.0000 0.9659 -0.2588
vn -0.0000 0.7071 -0.7071
vn -0.0000 0.2588 -0.9659
vn -0.6889 0.6889 0.2253
vn -0.8407 0.3829 0.3829
vn -0.6889 0.2253 0.6889
vn -0.3829 0.3829 0.8407
vn -0.2253 0.6889 0.6889
vn -0.3829 0.8407 0.3829
vn -0.5773 0.5774 0.5773
vn 0.3162 0.9487 -0.0000
vn -0.3162 -0.9487 -0.0000
vn -0.3162 0.9487 -0.0000
vn 0.3162 -0.9487 -0.0000
vn -0.9650 0.2624 -0.0000
vn -0.8463 -0.5327 -0.0000
vn -0.2838 0.9589 -0.0000
vn 0.7139 0.7003 -0.0000
vn 0.9533 -0.3020 -0.0000
vn -0.9965 -0.0832 -0.0000
vn -0.8181 0.5750 -0.0000
vn 0.2163 0.9763 -0.0000
vn 0.8784 -0.4779 -0.0000
vn 0.9946 0.1041 -0.0000
vt 0.541667 0.000000
vt 0.625000 0.000000
vt 0.625000 0.250000
vt 0.541667 0.250000
vt 0.625000 0.500000
vt 0.541667 0.500000
vt 0.625000 0.750000
vt 0.541667 0.750000
vt 0.425000 0.950000
vt 0.425000 0.800000
vt 0.125000 0.500000
vt 0.375000 0.500000
vt 0.375000 0.750000
vt 0.125000 0.750000
vt 0.625000 1.000000
vt 0.875000 0.500000
vt 0.458333 0.500000
vt 0.000000 0.000000
vt 0.525000 0.950000
vt 0.575000 0.950000
vt 0.541667 1.000000
vt 0.475000 0.800000
vt 0.458333 0.750000
vt 0.375000 1.000000
vt 0.575000 0.800000
vt 0.525000 0.800000
vt 0.525000 0.950000
vt 0.475000 0.950000
vt 0.475000 0.950000
vt 0.875000 0.562407
vt 0.625000 0.562407
vt 0.625000 0.531204
vt 0.875000 0.531204
vt 0.625000 0.506622
vt 0.875000 0.500000
vt 0.625000 0.500000
vt 0.625000 0.062500
vt 0.625000 0.031823
vt 0.625000 0.017669
vt 0.625000 0.031823
vt 0.625000 0.009274
vt 0.625000 0.990726
vt 0.625000 0.968176
vt 0.625000 0.982331
vt 0.812500 0.750000
vt 0.843177 0.740726
vt 0.827004 0.780327
vt 0.843177 0.750000
vt 0.865726 0.718177
vt 0.873334 0.732331
vt 0.625000 0.007331
vt 0.875000 0.687500
vt 0.625000 0.800039
vt 0.625000 0.841174
vt 0.625000 0.884380
vt 0.625000 0.926540
vt 0.625000 0.937839
vt 0.625000 0.187593
vt 0.625000 0.218796
vt 0.625000 0.241639
vt 0.475000 0.800000
vt 0.458333 1.000000
vt 0.375000 0.250000
vt 0.458333 0.250000
vt 0.375000 0.000000
vt 0.458333 0.000000
vt 0.625000 0.829045
vt 0.625000 0.848052
vt 0.625000 0.879856
vt 0.625000 0.908297
vt 0.625000 0.916107
vt 0.625000 0.937500
s 0
f 65/1/1 36/2/1 4/3/1 66/4/1
f 66/4/2 4/3/2 19/5/2 68/6/2
f 84/6/3 8/5/3 6/7/3 86/8/3
f 1/9/4 21/10/4 42/10/4 39/9/4
f 3/11/5 20/12/5 38/13/5 35/14/5
f 36/15/6 37/7/6 12/7/6 9/15/6
f 12/7/6 37/7/6 15/7/6 18/7/6
f 4/3/1 10/3/1 16/3/1 13/3/1
f 4/3/1 36/2/1 9/2/1 10/3/1
f 14/5/7 13/3/7 16/3/7 17/5/7
f 15/7/8 14/5/8 17/5/8 18/7/8
f 19/5/5 4/3/5 13/3/5 14/5/5
f 11/5/4 12/7/4 18/7/4 17/5/4
f 37/7/5 19/5/5 14/5/5 15/7/5
f 10/16/4 11/5/4 17/5/4 16/16/4
f 73/17/4 24/12/4 20/12/4 69/17/4
f 24/12/4 25/13/4 38/13/4 20/12/4
f 26/7/4 23/5/4 19/5/4 37/7/4
f 74/8/4 26/7/4 37/7/4 70/8/4
f 77/18/4 28/18/4 24/18/4 73/18/4
f 28/12/4 29/13/4 25/13/4 24/12/4
f 30/7/4 27/5/4 23/5/4 26/7/4
f 78/18/4 30/18/4 26/18/4 74/18/4
f 81/18/4 32/18/4 28/18/4 77/18/4
f 32/12/4 33/13/4 29/13/4 28/12/4
f 34/7/4 31/5/4 27/5/4 30/7/4
f 82/18/4 34/18/4 30/18/4 78/18/4
f 85/17/4 7/12/4 32/12/4 81/17/4
f 7/12/4 5/13/4 33/13/4 32/12/4
f 6/7/4 8/5/4 31/5/4 34/7/4
f 86/8/4 6/7/4 34/7/4 82/8/4
f 89/19/6 2/20/6 36/15/6 65/21/6
f 91/22/6 21/10/6 38/13/6 71/23/6
f 21/10/6 1/9/6 35/24/6 38/13/6
f 2/20/6 22/25/6 37/7/6 36/15/6
f 94/26/6 41/25/6 40/20/6 93/27/6
f 88/28/3 1/9/3 39/9/3 92/29/3
f 22/25/5 2/20/5 40/20/5 41/25/5
f 90/26/1 22/25/1 41/25/1 94/26/1
f 44/30/9 49/31/9 51/32/9 46/33/9
f 46/33/10 51/32/10 50/34/10 47/35/10
f 47/35/11 50/34/11 48/36/11 45/16/11
f 11/5/2 10/16/2 45/16/2 48/36/2
f 12/7/3 11/5/3 48/36/3 50/34/3 51/32/3 49/31/3 43/7/3
f 52/37/12 55/38/12 57/39/12 56/40/12
f 55/38/13 59/41/13 60/2/13 57/39/13
f 53/15/14 58/42/14 60/15/14 59/15/14
f 58/42/15 62/43/15 63/44/15 60/15/15
f 54/45/16 61/46/16 63/47/16 62/48/16
f 61/46/17 56/49/17 57/50/17 63/47/17
f 57/50/18 60/51/18 63/47/18
f 49/31/4 44/30/4 52/52/4 56/49/4 61/46/4 54/45/4 43/7/4
f 9/15/6 12/7/6 43/7/6 108/53/6 107/54/6 106/55/6 105/56/6 104/57/6 58/42/6 53/15/6
f 10/3/1 9/2/1 53/2/1 59/41/1 55/38/1 52/37/1 44/58/1 46/59/1 47/60/1 45/3/1
f 21/10/1 91/22/1 95/61/1 42/10/1
f 91/22/1 90/26/1 94/26/1 95/61/1
f 2/20/3 89/19/3 93/27/3 40/20/3
f 89/19/3 88/28/3 92/29/3 93/27/3
f 42/10/6 95/61/6 92/29/6 39/9/6
f 95/61/6 94/26/6 93/27/6 92/29/6
f 22/25/6 90/26/6 70/8/6 37/7/6
f 91/22/19 71/23/19 99/23/19 103/22/19
f 1/9/6 88/28/6 64/62/6 35/24/6
f 89/19/20 65/21/20 97/21/20 101/19/20
f 5/13/4 87/23/4 83/23/4 33/13/4
f 87/23/4 86/8/4 82/8/4 83/23/4
f 8/5/4 84/6/4 80/6/4 31/5/4
f 84/6/4 85/17/4 81/17/4 80/6/4
f 33/18/4 83/18/4 79/18/4 29/18/4
f 83/18/4 82/18/4 78/18/4 79/18/4
f 31/18/4 80/18/4 76/18/4 27/18/4
f 80/18/4 81/18/4 77/18/4 76/18/4
f 29/18/4 79/18/4 75/18/4 25/18/4
f 79/18/4 78/18/4 74/18/4 75/18/4
f 27/18/4 76/18/4 72/18/4 23/18/4
f 76/18/4 77/18/4 73/18/4 72/18/4
f 25/13/4 75/23/4 71/23/4 38/13/4
f 75/23/4 74/8/4 70/8/4 71/23/4
f 23/5/4 72/6/4 68/6/4 19/5/4
f 72/6/4 73/17/4 69/17/4 68/6/4
f 7/12/3 85/17/3 87/23/3 5/13/3
f 85/17/3 84/6/3 86/8/3 87/23/3
f 3/63/2 67/64/2 69/17/2 20/12/2
f 67/64/2 66/4/2 68/6/2 69/17/2
f 35/65/1 64/66/1 67/64/1 3/63/1
f 64/66/1 65/1/1 66/4/1 67/64/1
f 102/26/6 103/22/6 99/23/6 98/8/6
f 100/28/6 101/19/6 97/21/6 96/62/6
f 64/62/21 88/28/21 100/28/21 96/62/21
f 71/23/1 70/8/1 98/8/1 99/23/1
f 70/8/22 90/26/22 102/26/22 98/8/22
f 90/26/3 91/22/3 103/22/3 102/26/3
f 88/28/1 89/19/1 101/19/1 100/28/1
f 65/1/3 64/66/3 96/66/3 97/1/3
f 119/67/6 120/68/6 121/69/6 122/70/6 123/71/6 114/57/6 115/56/6 116/55/6 117/54/6 118/53/6
f 58/42/6 104/57/6 113/71/6 112/70/6 111/69/6 110/68/6 109/67/6 108/53/6 43/7/6 54/72/6 62/43/6
f 109/67/23 110/68/23 120/68/23 119/67/23
f 106/55/24 107/54/24 117/54/24 116/55/24
f 113/71/25 104/57/25 114/57/25 123/71/25
f 110/68/26 111/69/26 121/69/26 120/68/26
f 107/54/27 108/53/27 118/53/27 117/54/27
f 104/57/28 105/56/28 115/56/28 114/57/28
f 111/69/29 112/70/29 122/70/29 121/69/29
f 108/53/30 109/67/30 119/67/30 118/53/30
f 105/56/31 106/55/31 116/55/31 115/56/31
f 112/70/32 113/71/32 123/71/32 122/70/32
